<?xml version="1.0" encoding="utf-8"?>
<!-- Generator: Adobe Illustrator 25.0.0, SVG Export Plug-In . SVG Version: 6.00 Build 0)  -->
<svg version="1.1" id="Layer_1" xmlns="http://www.w3.org/2000/svg" x="0px"
     y="0px"
     viewBox="0 0 907.09 907.09"
     style="enable-background:new 0 0 907.09 907.09;" xml:space="preserve">
<style type="text/css">
	.st0{fill:#3B2207;}
	.st1{fill:#FFFFFF;}
</style>
<path class="st0" d="M600.83,171.67c0,0-24.53-21.88-23.3-40.11l23.3,20.06c0,0,4.91-40.72-33.11-35.86c0,0-46.61,9.72-89.53-13.37
	c0,0-22.08,4.86-18.4,21.88c0,0-83.4-23.1-85.85-36.47c0,0,39.25-23.1-14.72-34.04c0,0-55.19-4.86-69.91,20.66
	c0,0-82.17-8.47-93.21,51.05c0,0-90.76,23.1-79.72,110.61c0,0-26.98,96.03,55.19,142.22c0,0,79.72,9.72,105.48-10.94
	c0,0,45.38-19.74,47.83,13.23c0,0,54.84-21.73,31.71,52.41c0,0,36.97,46.19,38.2,63.21l24.53-47.41c0,0,17.17,30.39,19.62,47.41
	c0,0-40.47,61.99-34.34,103.32c0,0-4.91-32.82-6.13-41.33c0,0-9.81,47.41,8.59,71.72c0,0,12.26,71.72,40.47,99.67
	c0,0,30.66,87.52,137.36-37.68c0,0-26.57-13.37,16.15-44.98c0,0,13.28-21.62,10.83-38.9c0,0,47.83-3.65,52.74-20.66
	c0,0,7.36-102.11-4.91-115.48c0,0,36.79-59.36,69.91-65.54l14.72-20.77c0,0-35.57,14.59-14.72-18.23c0,0-35.57,1.62-66.23,76.17
	c0,0-30.66,35.66-28.21-25.12c0,0,30.66-71.72,20.85-97.24c0,0-23.3,38.9-31.89,42.54l11.04,7.29c0,0-2.06,41.33-17.59,47.41
	c0,0-21.66-8.51-21.66-34.04c0,0,7.36,42.54,3.68,43.76c0,0-31.89,14.18-35.57,8.91l-6.95-30.69l-6.54,37.18
	c0,0-30.81,85.64,17.17,68.48c0,0,29.44,47.41-36.79,59.56c0,0-111.61-20.66-66.23-159.24c0,0-36.79,63.21-19.62,2.43
	c0,0,31.89-54.7,33.11-71.72c0,0-26.98,29.17-22.08-6.08c0,0-1.23-37.68,25.76-41.33l-12.26-13.37c0,0,1.23-35.25,13.49-40.11
	C483.09,242.17,494.12,153.44,600.83,171.67z"/>
<path class="st1" d="M566.89,450.84c0,0,32.71,83.47,0,149.11c0,0,21.26-29.98,26.16-43.76c0,0,4.09,81.04-96.48,111.02
	c0,0,165.16,21.88,109.56-230.14L566.89,450.84z"/>
<path class="st1" d="M491.67,188.28c0,0-53.96-5.67-72.77,89.95c0,0,13.9-8.1,17.17-15.4c0,0-17.99,46.19-70.32,85.09
	c0,0-8.99,20.26,19.62,9.72c0,0-32.71,31.6,4.09,24.31c0,0-26.16,38.09,22.89,17.02c0,0-24.53,26.74,0,44.57
	c0,0,43.34-48.62,40.06-72.93c0,0-10.63-34.91-4.91-54.73l-19.48,14.21c0,0,39.1-51.05,37.46-110.21
	C465.51,219.89,466.32,197.2,491.67,188.28z"/>
<path class="st0" d="M480.22,377.1c0,0,37.61-24.31,64.59,4.05C544.82,381.15,517.02,367.37,480.22,377.1z"/>
<path class="st0" d="M476.14,410.32c0,0,37.63-19.81,64.59,4.05C540.73,414.38,508.75,400.18,476.14,410.32z"/>
<path class="st0" d="M461.42,454.89c0,0,33.52-31.6,67.05-5.67C528.46,449.22,492.51,439.03,461.42,454.89z"/>
<path class="st0" d="M528.46,472.72c0,0-42.52-16.21-67.05,13.78C461.42,486.5,493.31,467.86,528.46,472.72z"/>
<path class="st0" d="M531.74,500.27c0,0-40.06-15.4-51.51,15.4C480.22,515.67,496.58,496.22,531.74,500.27z"/>
<path class="st0" d="M540.73,515.67c0,0-42.52,6.48-39.25,31.6C501.48,547.28,511.29,525.4,540.73,515.67z"/>
<path class="st0" d="M613.5,285.53c0,0-15.54,9.72-16.35,22.69c0,0-3.27,15.4-13.08,17.02c0,0,29.42,4.05,33.51-19.85
	C617.58,305.38,610.23,292.01,613.5,285.53z"/>
</svg>
